<svg id="Layer_1" data-name="Layer 1" xmlns="http://www.w3.org/2000/svg" viewBox="0 0 1346 559.5"><defs><style>.cls-1{fill:#a0ebff;}.cls-2{fill:#71c6de;}.cls-3{fill:#fff;}.cls-4{fill:#b6f0ff;}.cls-5{fill:#fc611f;}.cls-6{fill:#e34e10;}.cls-7{font-size:200px;font-family:CenturyGothic, Century Gothic;}</style></defs><circle class="cls-1" cx="256" cy="256" r="256"/><polygon class="cls-2" points="122.2 399.07 94.04 396.63 175.52 315.15 190.82 330.44 122.2 399.07"/><path class="cls-3" d="M266.88,237.1l-11.6,11.6,25.35,25.35L164.29,390.39l.14.13c-7,9.68,4,33.89,25.59,55.46s45.78,32.59,55.47,25.6l.13.13L362,355.38l25.35,25.35,11.6-11.6Z" transform="translate(-20 -110.5)"/><polygon class="cls-3" points="318.9 88.01 306.52 100.39 327.75 121.62 284.83 164.54 341.42 221.14 384.35 178.22 405.57 199.44 417.96 187.06 318.9 88.01"/><path class="cls-4" d="M332.89,303.11,190.55,445.46c18.38,15,36.64,21.77,44.74,15.92l.13.14L351.76,345.18l25.34,25.35,11.61-11.6Z" transform="translate(-20 -110.5)"/><polygon class="cls-4" points="368.2 137.31 312.89 192.61 331.22 210.94 374.15 168.02 395.38 189.25 407.76 176.87 368.2 137.31"/><rect class="cls-4" x="362.06" y="226.22" width="16.35" height="80.04" transform="translate(-99.82 229.28) rotate(-45)"/><path class="cls-5" d="M233.49,341.58l-56.77,56.77c0,5.14,6.52,20.46,23.5,37.43s32.28,23.5,37.43,23.5l56.77-56.77Z" transform="translate(-20 -110.5)"/><path class="cls-6" d="M264.3,372.39l-63.73,63.73c16.83,16.7,32,23.17,37.08,23.17l56.77-56.78Z" transform="translate(-20 -110.5)"/><path class="cls-2" d="M251.35,303.8,242.19,313l24.73,24.72,9.15-9.16Zm-31.27,31.26,24.72,24.73,9.16-9.16-24.73-24.72ZM198,357.17l24.72,24.73,9.16-9.16L207.13,348Zm-22.11,22.11L200.59,404l9.15-9.15L185,370.12Z" transform="translate(-20 -110.5)"/><text x="-20" y="-110.5"/><text class="cls-7" transform="translate(633.46 430.7)">Vacina</text><text class="cls-7" transform="translate(514.33 227.27)">Pitang</text></svg>